<mxfile host="app.diagrams.net" modified="2022-11-25T17:22:42.729Z" agent="5.0 (Macintosh; Intel Mac OS X 10_15_7) AppleWebKit/605.1.15 (KHTML, like Gecko) Version/15.6 Safari/605.1.15" etag="dPEwGt_1udeSFktisY-U" version="20.6.0" type="github">
  <diagram id="jzwjUSY3QaUkcm6oz3zR" name="Page-1">
    <mxGraphModel dx="1025" dy="920" grid="1" gridSize="10" guides="1" tooltips="1" connect="1" arrows="1" fold="1" page="1" pageScale="1" pageWidth="1100" pageHeight="850" math="0" shadow="0">
      <root>
        <mxCell id="0" />
        <mxCell id="1" parent="0" />
        <mxCell id="6Xcf-pTH2PnTnf88Lmja-29" value="Eurorack/CVgear" style="rounded=0;whiteSpace=wrap;html=1;verticalAlign=top;" vertex="1" parent="1">
          <mxGeometry x="240" y="20" width="235" height="295" as="geometry" />
        </mxCell>
        <mxCell id="NrFgvhxCZPmPd3hg9J9--1" value="Norns" style="whiteSpace=wrap;html=1;verticalAlign=top;" parent="1" vertex="1">
          <mxGeometry x="240" y="370.5" width="440" height="270" as="geometry" />
        </mxCell>
        <mxCell id="6Xcf-pTH2PnTnf88Lmja-20" style="rounded=0;orthogonalLoop=1;jettySize=auto;html=1;exitX=1;exitY=0.25;exitDx=0;exitDy=0;" edge="1" parent="1" source="6Xcf-pTH2PnTnf88Lmja-1" target="6Xcf-pTH2PnTnf88Lmja-17">
          <mxGeometry relative="1" as="geometry" />
        </mxCell>
        <mxCell id="6Xcf-pTH2PnTnf88Lmja-22" value="CV" style="edgeLabel;html=1;align=center;verticalAlign=middle;resizable=0;points=[];" vertex="1" connectable="0" parent="6Xcf-pTH2PnTnf88Lmja-20">
          <mxGeometry x="-0.5048" y="1" relative="1" as="geometry">
            <mxPoint x="-13" y="-5" as="offset" />
          </mxGeometry>
        </mxCell>
        <mxCell id="6Xcf-pTH2PnTnf88Lmja-21" style="rounded=0;orthogonalLoop=1;jettySize=auto;html=1;exitX=1;exitY=0.75;exitDx=0;exitDy=0;" edge="1" parent="1" source="6Xcf-pTH2PnTnf88Lmja-1" target="6Xcf-pTH2PnTnf88Lmja-18">
          <mxGeometry relative="1" as="geometry" />
        </mxCell>
        <mxCell id="6Xcf-pTH2PnTnf88Lmja-23" value="TR" style="edgeLabel;html=1;align=center;verticalAlign=middle;resizable=0;points=[];" vertex="1" connectable="0" parent="6Xcf-pTH2PnTnf88Lmja-21">
          <mxGeometry x="-0.5579" y="2" relative="1" as="geometry">
            <mxPoint x="-10" y="1" as="offset" />
          </mxGeometry>
        </mxCell>
        <mxCell id="6Xcf-pTH2PnTnf88Lmja-1" value="CV sequence in" style="whiteSpace=wrap;html=1;" vertex="1" parent="1">
          <mxGeometry x="297.5" y="65" width="120" height="60" as="geometry" />
        </mxCell>
        <mxCell id="6Xcf-pTH2PnTnf88Lmja-59" style="edgeStyle=orthogonalEdgeStyle;rounded=0;jumpStyle=none;orthogonalLoop=1;jettySize=auto;html=1;exitX=1;exitY=0.5;exitDx=0;exitDy=0;entryX=0;entryY=0.5;entryDx=0;entryDy=0;strokeColor=default;dashed=1;endArrow=classic;endFill=1;startArrow=classic;startFill=1;" edge="1" parent="1" source="6Xcf-pTH2PnTnf88Lmja-2" target="6Xcf-pTH2PnTnf88Lmja-58">
          <mxGeometry relative="1" as="geometry" />
        </mxCell>
        <mxCell id="6Xcf-pTH2PnTnf88Lmja-2" value="&lt;b&gt;Crow&lt;/b&gt;" style="whiteSpace=wrap;html=1;verticalAlign=top;" vertex="1" parent="1">
          <mxGeometry x="560" y="85" width="70" height="170" as="geometry" />
        </mxCell>
        <mxCell id="6Xcf-pTH2PnTnf88Lmja-37" style="edgeStyle=orthogonalEdgeStyle;rounded=0;orthogonalLoop=1;jettySize=auto;html=1;exitX=1;exitY=0.5;exitDx=0;exitDy=0;entryX=0.5;entryY=0;entryDx=0;entryDy=0;" edge="1" parent="1" source="6Xcf-pTH2PnTnf88Lmja-3" target="6Xcf-pTH2PnTnf88Lmja-11">
          <mxGeometry relative="1" as="geometry">
            <Array as="points">
              <mxPoint x="460" y="553" />
            </Array>
          </mxGeometry>
        </mxCell>
        <mxCell id="6Xcf-pTH2PnTnf88Lmja-3" value="MIDI sequence in" style="whiteSpace=wrap;html=1;" vertex="1" parent="1">
          <mxGeometry x="90" y="523" width="120" height="60" as="geometry" />
        </mxCell>
        <mxCell id="6Xcf-pTH2PnTnf88Lmja-4" value="CV synth*" style="whiteSpace=wrap;html=1;" vertex="1" parent="1">
          <mxGeometry x="297.5" y="155" width="120" height="60" as="geometry" />
        </mxCell>
        <mxCell id="6Xcf-pTH2PnTnf88Lmja-5" value="MIDI synth*" style="whiteSpace=wrap;html=1;" vertex="1" parent="1">
          <mxGeometry x="720" y="373" width="120" height="60" as="geometry" />
        </mxCell>
        <mxCell id="6Xcf-pTH2PnTnf88Lmja-6" value="Just Friends*" style="whiteSpace=wrap;html=1;" vertex="1" parent="1">
          <mxGeometry x="297.5" y="235" width="120" height="60" as="geometry" />
        </mxCell>
        <mxCell id="6Xcf-pTH2PnTnf88Lmja-7" value="Norns engine*" style="whiteSpace=wrap;html=1;" vertex="1" parent="1">
          <mxGeometry x="720" y="463" width="120" height="60" as="geometry" />
        </mxCell>
        <mxCell id="6Xcf-pTH2PnTnf88Lmja-46" style="edgeStyle=orthogonalEdgeStyle;rounded=0;jumpStyle=none;orthogonalLoop=1;jettySize=auto;html=1;exitX=0.5;exitY=1;exitDx=0;exitDy=0;entryX=0.5;entryY=0;entryDx=0;entryDy=0;dashed=1;strokeColor=default;" edge="1" parent="1" source="6Xcf-pTH2PnTnf88Lmja-8" target="6Xcf-pTH2PnTnf88Lmja-45">
          <mxGeometry relative="1" as="geometry" />
        </mxCell>
        <mxCell id="6Xcf-pTH2PnTnf88Lmja-52" style="edgeStyle=orthogonalEdgeStyle;rounded=0;jumpStyle=none;orthogonalLoop=1;jettySize=auto;html=1;exitX=1;exitY=0.5;exitDx=0;exitDy=0;strokeColor=default;" edge="1" parent="1" source="6Xcf-pTH2PnTnf88Lmja-8" target="6Xcf-pTH2PnTnf88Lmja-50">
          <mxGeometry relative="1" as="geometry" />
        </mxCell>
        <mxCell id="6Xcf-pTH2PnTnf88Lmja-8" value="Chord sequence" style="whiteSpace=wrap;html=1;" vertex="1" parent="1">
          <mxGeometry x="260" y="393" width="120" height="30" as="geometry" />
        </mxCell>
        <mxCell id="6Xcf-pTH2PnTnf88Lmja-55" style="edgeStyle=orthogonalEdgeStyle;rounded=0;jumpStyle=none;orthogonalLoop=1;jettySize=auto;html=1;exitX=1;exitY=0.5;exitDx=0;exitDy=0;entryX=0.25;entryY=1;entryDx=0;entryDy=0;strokeColor=default;" edge="1" parent="1" source="6Xcf-pTH2PnTnf88Lmja-9" target="6Xcf-pTH2PnTnf88Lmja-50">
          <mxGeometry relative="1" as="geometry" />
        </mxCell>
        <mxCell id="6Xcf-pTH2PnTnf88Lmja-9" value="Arpeggiator" style="rounded=0;whiteSpace=wrap;html=1;" vertex="1" parent="1">
          <mxGeometry x="400" y="443" width="120" height="30" as="geometry" />
        </mxCell>
        <mxCell id="6Xcf-pTH2PnTnf88Lmja-56" style="edgeStyle=orthogonalEdgeStyle;rounded=0;jumpStyle=none;orthogonalLoop=1;jettySize=auto;html=1;exitX=1;exitY=0.5;exitDx=0;exitDy=0;entryX=0.5;entryY=1;entryDx=0;entryDy=0;strokeColor=default;" edge="1" parent="1" source="6Xcf-pTH2PnTnf88Lmja-10" target="6Xcf-pTH2PnTnf88Lmja-50">
          <mxGeometry relative="1" as="geometry" />
        </mxCell>
        <mxCell id="6Xcf-pTH2PnTnf88Lmja-10" value="CV harmonizer" style="whiteSpace=wrap;html=1;" vertex="1" parent="1">
          <mxGeometry x="400" y="503" width="120" height="35" as="geometry" />
        </mxCell>
        <mxCell id="6Xcf-pTH2PnTnf88Lmja-57" style="edgeStyle=orthogonalEdgeStyle;rounded=0;jumpStyle=none;orthogonalLoop=1;jettySize=auto;html=1;exitX=1;exitY=0.5;exitDx=0;exitDy=0;entryX=0.75;entryY=1;entryDx=0;entryDy=0;strokeColor=default;" edge="1" parent="1" source="6Xcf-pTH2PnTnf88Lmja-11" target="6Xcf-pTH2PnTnf88Lmja-50">
          <mxGeometry relative="1" as="geometry" />
        </mxCell>
        <mxCell id="6Xcf-pTH2PnTnf88Lmja-11" value="MIDI harmonizer" style="whiteSpace=wrap;html=1;" vertex="1" parent="1">
          <mxGeometry x="400" y="568" width="120" height="40" as="geometry" />
        </mxCell>
        <mxCell id="6Xcf-pTH2PnTnf88Lmja-25" style="edgeStyle=none;rounded=0;orthogonalLoop=1;jettySize=auto;html=1;exitX=0;exitY=0.5;exitDx=0;exitDy=0;" edge="1" parent="1" source="6Xcf-pTH2PnTnf88Lmja-13" target="6Xcf-pTH2PnTnf88Lmja-4">
          <mxGeometry relative="1" as="geometry" />
        </mxCell>
        <mxCell id="6Xcf-pTH2PnTnf88Lmja-27" value="CV" style="edgeLabel;html=1;align=center;verticalAlign=middle;resizable=0;points=[];" vertex="1" connectable="0" parent="6Xcf-pTH2PnTnf88Lmja-25">
          <mxGeometry x="0.1139" y="-2" relative="1" as="geometry">
            <mxPoint x="59" y="2" as="offset" />
          </mxGeometry>
        </mxCell>
        <mxCell id="6Xcf-pTH2PnTnf88Lmja-13" value="out 1" style="rounded=0;whiteSpace=wrap;html=1;" vertex="1" parent="1">
          <mxGeometry x="560" y="175" width="70" height="20" as="geometry" />
        </mxCell>
        <mxCell id="6Xcf-pTH2PnTnf88Lmja-26" style="edgeStyle=none;rounded=0;orthogonalLoop=1;jettySize=auto;html=1;exitX=0;exitY=0.5;exitDx=0;exitDy=0;entryX=1;entryY=0.75;entryDx=0;entryDy=0;" edge="1" parent="1" source="6Xcf-pTH2PnTnf88Lmja-14" target="6Xcf-pTH2PnTnf88Lmja-4">
          <mxGeometry relative="1" as="geometry" />
        </mxCell>
        <mxCell id="6Xcf-pTH2PnTnf88Lmja-28" value="TR" style="edgeLabel;html=1;align=center;verticalAlign=middle;resizable=0;points=[];" vertex="1" connectable="0" parent="6Xcf-pTH2PnTnf88Lmja-26">
          <mxGeometry x="0.0586" y="-1" relative="1" as="geometry">
            <mxPoint x="56" y="4" as="offset" />
          </mxGeometry>
        </mxCell>
        <mxCell id="6Xcf-pTH2PnTnf88Lmja-14" value="out 2" style="rounded=0;whiteSpace=wrap;html=1;" vertex="1" parent="1">
          <mxGeometry x="560" y="195" width="70" height="20" as="geometry" />
        </mxCell>
        <mxCell id="6Xcf-pTH2PnTnf88Lmja-34" style="edgeStyle=none;rounded=0;orthogonalLoop=1;jettySize=auto;html=1;exitX=0;exitY=0.5;exitDx=0;exitDy=0;entryX=0.997;entryY=0.788;entryDx=0;entryDy=0;entryPerimeter=0;" edge="1" parent="1" source="6Xcf-pTH2PnTnf88Lmja-15" target="6Xcf-pTH2PnTnf88Lmja-29">
          <mxGeometry relative="1" as="geometry" />
        </mxCell>
        <mxCell id="6Xcf-pTH2PnTnf88Lmja-35" value="Clock" style="edgeLabel;html=1;align=center;verticalAlign=middle;resizable=0;points=[];" vertex="1" connectable="0" parent="6Xcf-pTH2PnTnf88Lmja-34">
          <mxGeometry x="-0.3528" y="-2" relative="1" as="geometry">
            <mxPoint as="offset" />
          </mxGeometry>
        </mxCell>
        <mxCell id="6Xcf-pTH2PnTnf88Lmja-15" value="out 3" style="rounded=0;whiteSpace=wrap;html=1;" vertex="1" parent="1">
          <mxGeometry x="560" y="215" width="70" height="20" as="geometry" />
        </mxCell>
        <mxCell id="6Xcf-pTH2PnTnf88Lmja-33" style="edgeStyle=none;rounded=0;orthogonalLoop=1;jettySize=auto;html=1;exitX=0;exitY=0.5;exitDx=0;exitDy=0;entryX=1.001;entryY=0.936;entryDx=0;entryDy=0;entryPerimeter=0;" edge="1" parent="1" source="6Xcf-pTH2PnTnf88Lmja-16" target="6Xcf-pTH2PnTnf88Lmja-29">
          <mxGeometry relative="1" as="geometry" />
        </mxCell>
        <mxCell id="6Xcf-pTH2PnTnf88Lmja-36" value="Event TR" style="edgeLabel;html=1;align=center;verticalAlign=middle;resizable=0;points=[];" vertex="1" connectable="0" parent="6Xcf-pTH2PnTnf88Lmja-33">
          <mxGeometry x="0.1093" y="-1" relative="1" as="geometry">
            <mxPoint as="offset" />
          </mxGeometry>
        </mxCell>
        <mxCell id="6Xcf-pTH2PnTnf88Lmja-16" value="out 4" style="rounded=0;whiteSpace=wrap;html=1;" vertex="1" parent="1">
          <mxGeometry x="560" y="235" width="70" height="20" as="geometry" />
        </mxCell>
        <mxCell id="6Xcf-pTH2PnTnf88Lmja-17" value="in 1" style="rounded=0;whiteSpace=wrap;html=1;" vertex="1" parent="1">
          <mxGeometry x="560" y="115" width="70" height="20" as="geometry" />
        </mxCell>
        <mxCell id="6Xcf-pTH2PnTnf88Lmja-18" value="in 2" style="rounded=0;whiteSpace=wrap;html=1;" vertex="1" parent="1">
          <mxGeometry x="560" y="135" width="70" height="20" as="geometry" />
        </mxCell>
        <mxCell id="6Xcf-pTH2PnTnf88Lmja-47" style="edgeStyle=orthogonalEdgeStyle;rounded=0;jumpStyle=none;orthogonalLoop=1;jettySize=auto;html=1;exitX=1;exitY=0.5;exitDx=0;exitDy=0;dashed=1;strokeColor=default;" edge="1" parent="1" source="6Xcf-pTH2PnTnf88Lmja-45" target="6Xcf-pTH2PnTnf88Lmja-9">
          <mxGeometry relative="1" as="geometry" />
        </mxCell>
        <mxCell id="6Xcf-pTH2PnTnf88Lmja-48" style="edgeStyle=orthogonalEdgeStyle;rounded=0;jumpStyle=none;orthogonalLoop=1;jettySize=auto;html=1;exitX=0.5;exitY=1;exitDx=0;exitDy=0;entryX=0;entryY=0.5;entryDx=0;entryDy=0;dashed=1;strokeColor=default;" edge="1" parent="1" source="6Xcf-pTH2PnTnf88Lmja-45" target="6Xcf-pTH2PnTnf88Lmja-10">
          <mxGeometry relative="1" as="geometry" />
        </mxCell>
        <mxCell id="6Xcf-pTH2PnTnf88Lmja-49" style="edgeStyle=orthogonalEdgeStyle;rounded=0;jumpStyle=none;orthogonalLoop=1;jettySize=auto;html=1;exitX=0.5;exitY=1;exitDx=0;exitDy=0;entryX=0;entryY=0.5;entryDx=0;entryDy=0;dashed=1;strokeColor=default;" edge="1" parent="1" source="6Xcf-pTH2PnTnf88Lmja-45" target="6Xcf-pTH2PnTnf88Lmja-11">
          <mxGeometry relative="1" as="geometry" />
        </mxCell>
        <mxCell id="6Xcf-pTH2PnTnf88Lmja-45" value="Playing chord" style="whiteSpace=wrap;html=1;" vertex="1" parent="1">
          <mxGeometry x="260" y="443" width="120" height="30" as="geometry" />
        </mxCell>
        <mxCell id="6Xcf-pTH2PnTnf88Lmja-50" value="Destinations*" style="whiteSpace=wrap;html=1;" vertex="1" parent="1">
          <mxGeometry x="550" y="403" width="120" height="30" as="geometry" />
        </mxCell>
        <mxCell id="6Xcf-pTH2PnTnf88Lmja-65" style="edgeStyle=orthogonalEdgeStyle;rounded=0;jumpStyle=none;orthogonalLoop=1;jettySize=auto;html=1;exitX=1;exitY=0.5;exitDx=0;exitDy=0;entryX=1;entryY=0.5;entryDx=0;entryDy=0;dashed=1;strokeColor=default;startArrow=classic;startFill=1;endArrow=classic;endFill=1;" edge="1" parent="1" source="6Xcf-pTH2PnTnf88Lmja-58" target="6Xcf-pTH2PnTnf88Lmja-6">
          <mxGeometry relative="1" as="geometry" />
        </mxCell>
        <mxCell id="6Xcf-pTH2PnTnf88Lmja-58" value="i2c" style="rounded=0;whiteSpace=wrap;html=1;" vertex="1" parent="1">
          <mxGeometry x="700" y="160" width="70" height="20" as="geometry" />
        </mxCell>
        <mxCell id="6Xcf-pTH2PnTnf88Lmja-67" style="edgeStyle=orthogonalEdgeStyle;rounded=0;jumpStyle=none;orthogonalLoop=1;jettySize=auto;html=1;exitX=0.25;exitY=1;exitDx=0;exitDy=0;entryX=0.769;entryY=0.003;entryDx=0;entryDy=0;entryPerimeter=0;strokeColor=default;startArrow=classic;startFill=1;endArrow=classic;endFill=1;" edge="1" parent="1" source="6Xcf-pTH2PnTnf88Lmja-66" target="NrFgvhxCZPmPd3hg9J9--1">
          <mxGeometry relative="1" as="geometry" />
        </mxCell>
        <mxCell id="6Xcf-pTH2PnTnf88Lmja-68" style="edgeStyle=orthogonalEdgeStyle;rounded=0;jumpStyle=none;orthogonalLoop=1;jettySize=auto;html=1;exitX=0.5;exitY=0;exitDx=0;exitDy=0;entryX=0.5;entryY=1;entryDx=0;entryDy=0;strokeColor=default;startArrow=classic;startFill=1;endArrow=classic;endFill=1;" edge="1" parent="1" source="6Xcf-pTH2PnTnf88Lmja-66" target="6Xcf-pTH2PnTnf88Lmja-16">
          <mxGeometry relative="1" as="geometry" />
        </mxCell>
        <mxCell id="6Xcf-pTH2PnTnf88Lmja-66" value="USB" style="whiteSpace=wrap;html=1;" vertex="1" parent="1">
          <mxGeometry x="560" y="295" width="70" height="30" as="geometry" />
        </mxCell>
      </root>
    </mxGraphModel>
  </diagram>
</mxfile>
